<svg width="142" height="23" viewBox="0 0 142 23" fill="none" xmlns="http://www.w3.org/2000/svg">
<path fill-rule="evenodd" clip-rule="evenodd" d="M37.3378 17.2348H40.3575L40.3588 1.19434H37.1613V7.49154C36.4561 6.72562 35.3764 6.3564 33.9437 6.3564C32.3344 6.3564 31.0121 6.87248 29.9762 7.88414C28.9627 8.89579 28.4557 10.2376 28.4554 11.9094C28.4552 13.5813 28.9621 14.9232 29.9762 15.9351C31.0121 16.9468 32.3344 17.4629 33.9437 17.4629C35.4645 17.4629 36.6988 16.9053 37.3378 16.1415V17.2348ZM34.4724 14.8631C32.8193 14.8631 31.7173 13.7878 31.7173 11.9093C31.7173 10.0308 32.8184 8.93671 34.4724 8.93671C36.0816 8.93671 37.1613 9.9898 37.1613 11.6619V12.1378C37.1613 13.8514 36.0816 14.8631 34.4724 14.8631Z" fill="#4F61FF"/>
<path fill-rule="evenodd" clip-rule="evenodd" d="M46.3529 12.8597H54.1793L54.1775 11.6626C54.1775 10.011 53.6926 8.71008 52.7006 7.78129C51.7089 6.83172 50.3866 6.35693 48.7335 6.35693C47.0143 6.35693 45.6254 6.85209 44.5457 7.86375C43.4656 8.85489 42.9365 10.1968 42.9365 11.91C42.9365 13.603 43.4691 14.9453 44.5475 15.9566C45.6258 16.9678 47.0599 17.4634 48.8233 17.4634C50.1675 17.4634 51.3134 17.1331 52.2836 16.4932C53.2752 15.8532 53.87 15.0065 54.0685 13.9952L50.8272 13.8508C50.5845 14.6352 49.8793 15.0274 48.7335 15.0274C47.3008 15.0274 46.4191 14.202 46.3529 12.8597ZM50.9375 10.8573H46.3529C46.4427 9.51541 47.3244 8.7101 48.7111 8.7101C50.122 8.7101 50.8714 9.51541 50.9375 10.8573Z" fill="#4F61FF"/>
<path d="M65.5539 7.47156C66.546 8.21451 67.1631 9.22616 67.3611 10.4852L64.2074 10.7313C64.0528 9.63722 63.1934 8.9353 61.9591 8.9353C60.4384 8.9353 59.3801 10.0294 59.3801 11.9079C59.3801 13.7454 60.4384 14.8616 61.9591 14.8616C63.2153 14.8616 64.0528 14.2012 64.2293 13.1271L67.3589 13.3959C67.1399 14.6549 66.5438 15.6456 65.5517 16.3685C64.5596 17.0913 63.3695 17.4626 61.96 17.4626C60.2408 17.4626 58.83 16.967 57.7499 15.9759C56.6715 14.9654 56.1205 13.6252 56.1205 11.91C56.1205 10.1947 56.6715 8.83315 57.7512 7.84324C58.8309 6.85333 60.2421 6.35693 61.9613 6.35693C63.3717 6.35693 64.5622 6.7282 65.5539 7.47156Z" fill="#4F61FF"/>
<path d="M73.0053 10.3612L76.6846 6.56275H80.5859L76.2877 11.1255L80.896 17.2348H76.9947L74.0193 13.3744L73.0053 14.407V17.2348H69.7864V1.19434H73.0044L73.0053 10.3612Z" fill="#4F61FF"/>
<path d="M86.5621 9.16379L86.5398 13.1275C86.5398 14.2217 87.2673 14.7381 88.2594 14.7381C88.5016 14.7381 88.8323 14.6971 89.251 14.6348V17.3169C88.6598 17.3976 88.0632 17.4387 87.4657 17.44C84.8867 17.44 83.2998 16.2425 83.3222 13.8479L83.3441 9.16133H81.2723V6.5604H83.3646L83.387 3.03027H86.6059L86.5836 6.5604H89.2506V9.16133L86.5621 9.16379Z" fill="#4F61FF"/>
<path fill-rule="evenodd" clip-rule="evenodd" d="M96.9666 17.4634C98.73 17.4634 100.185 16.9473 101.309 15.9357C102.455 14.9035 103.028 13.5616 103.028 11.91C103.028 10.2384 102.455 8.8966 101.309 7.88467C100.185 6.87302 98.73 6.35693 96.9666 6.35693C95.2031 6.35693 93.7485 6.87302 92.6027 7.88467C91.4783 8.89633 90.9054 10.2382 90.9054 11.91C90.9054 13.5616 91.4783 14.9035 92.6027 15.9357C93.7485 16.9473 95.2031 17.4634 96.9666 17.4634ZM94.939 9.74273C95.4458 9.20573 96.1291 8.93743 96.9665 8.93743C97.804 8.93743 98.4873 9.20573 98.9945 9.74273C99.5031 10.2584 99.7659 10.9808 99.7659 11.91C99.7659 12.8392 99.5017 13.5625 98.9945 14.0782C98.4873 14.5938 97.804 14.8625 96.9665 14.8625C96.1291 14.8625 95.448 14.5947 94.939 14.0782C94.43 13.5617 94.1672 12.8388 94.1672 11.91C94.1672 10.9813 94.4318 10.2584 94.939 9.74273Z" fill="#4F61FF"/>
<path fill-rule="evenodd" clip-rule="evenodd" d="M117.51 11.9096C117.51 10.2379 117.004 8.89601 115.967 7.88436C114.954 6.8727 113.631 6.35662 111.999 6.35498C110.456 6.35498 109.332 6.78861 108.626 7.67637V6.56297H105.585V22.5H108.803V16.3275C109.532 17.0914 110.612 17.4631 112 17.4631C113.631 17.4631 114.954 16.947 115.967 15.9353C117.004 14.9237 117.51 13.5814 117.51 11.9096ZM108.804 12.1574V11.6622C108.804 9.99005 109.884 8.93696 111.493 8.93696C113.146 8.93696 114.249 10.0311 114.249 11.9096C114.249 13.7881 113.146 14.8822 111.493 14.8822C109.884 14.8822 108.804 13.8295 108.804 12.1574Z" fill="#4F61FF"/>
<path d="M130.164 17.235H127.122V16.1626C126.549 17.0295 125.557 17.4631 124.168 17.4631C121.545 17.4631 119.958 15.8939 119.958 13.2725V6.56299H123.176V12.6346C123.176 13.9765 123.794 14.6575 125.006 14.6575C126.218 14.6575 126.946 13.83 126.946 12.5911V6.56299H130.165L130.164 17.235Z" fill="#4F61FF"/>
<path d="M141.847 9.8045L138.65 9.9686C138.605 9.1019 138.12 8.66841 137.195 8.66814C136.335 8.66814 135.895 8.97787 135.895 9.57682C135.895 9.90706 136.049 10.1134 136.379 10.2574C136.754 10.4437 137.371 10.5676 138.121 10.7534C140.743 11.393 142 12.1154 142 13.9122C142 16.1214 140.258 17.4633 137.327 17.4633C134.418 17.4633 132.72 16.2244 132.478 13.9951L135.696 13.831C135.74 14.7188 136.291 15.1524 137.349 15.1524C138.231 15.1524 138.781 14.7807 138.781 14.1822C138.781 13.5422 138.387 13.3564 136.71 12.9642C135.542 12.6955 135.035 12.5515 134.241 12.2212C133.183 11.7047 132.765 11.0443 132.676 9.72287C132.676 7.65853 134.395 6.35889 137.239 6.35889C140.04 6.35684 141.649 7.73976 141.847 9.8045Z" fill="#4F61FF"/>
<path d="M9.90532 20.8451L9.79143 14.8359C10.5728 14.8227 11.2307 14.7185 11.7467 14.5257C12.7707 14.1584 13.5798 13.4007 13.9722 12.4417C14.1947 11.9191 14.3025 11.3373 14.3025 10.6633C14.3025 10.0012 14.1925 9.40839 13.9749 8.89928C13.5794 7.94193 12.7702 7.18581 11.7471 6.81771C11.1891 6.60931 10.568 6.50798 9.84837 6.50798H3.36584V0.5H9.84837C11.3757 0.5 12.8137 0.746145 14.1229 1.23843C16.777 2.21535 18.8798 4.17943 19.93 6.66264C20.4556 7.88516 20.7184 9.23116 20.7184 10.6637C20.7184 12.0963 20.4556 13.4411 19.93 14.6677C18.886 17.1585 16.7822 19.13 14.1233 20.1091C12.8667 20.5784 11.4874 20.8192 9.90532 20.8451Z" fill="#4F61FF"/>
<path d="M7.55804 17.2048C7.50753 15.2617 5.79365 13.7201 3.71863 13.7514C1.64361 13.7828 -0.016306 15.3753 0.000120877 17.319C0.0165478 19.2626 1.70317 20.8304 3.77846 20.8309H7.5576V17.2048H7.55804Z" fill="#4F61FF"/>
</svg>
