<svg width="25" height="26" viewBox="0 0 25 26" fill="none" xmlns="http://www.w3.org/2000/svg">
<path fill-rule="evenodd" clip-rule="evenodd" d="M12.4169 0.5C11.3123 0.5 10.4169 1.39543 10.4169 2.5V10.9159H2C0.895431 10.9159 0 11.8113 0 12.9159V13.0826C0 14.1871 0.895431 15.0826 2 15.0826H10.4169V23.5C10.4169 24.6046 11.3123 25.5 12.4169 25.5H12.5835C13.6881 25.5 14.5835 24.6046 14.5835 23.5V15.0826H23C24.1046 15.0826 25 14.1871 25 13.0826V12.9159C25 11.8113 24.1046 10.9159 23 10.9159H14.5835V2.5C14.5835 1.39543 13.6881 0.5 12.5835 0.5H12.4169Z" fill="white"/>
</svg>
