<svg width="16" height="17" viewBox="0 0 16 17" fill="none" xmlns="http://www.w3.org/2000/svg">
<g clip-path="url(#clip0_2500_478)">
<path d="M3.33333 2.5C2.59667 2.5 2 3.09667 2 3.83333V4.5V5.16667V13.1667C2 13.9033 2.59667 14.5 3.33333 14.5H9.44792C9.81592 14.5 10.1146 14.2013 10.1146 13.8333C10.1146 13.4653 9.81658 13.1667 9.44792 13.1667H3.33333V5.16667H12.6667L12.6654 9.94792C12.6654 10.3159 12.964 10.6146 13.332 10.6146C13.7 10.6146 13.9987 10.3159 13.9987 9.94792V5.16667H14V3.83333C14 3.09667 13.4033 2.5 12.6667 2.5H3.33333ZM5 7.16667C4.816 7.16667 4.66667 7.316 4.66667 7.5V8.16667C4.66667 8.35067 4.816 8.5 5 8.5H5.66667C5.85067 8.5 6 8.35067 6 8.16667V7.5C6 7.316 5.85067 7.16667 5.66667 7.16667H5ZM8 7.16667C7.632 7.16667 7.33333 7.46533 7.33333 7.83333C7.33333 8.20133 7.632 8.5 8 8.5H10.6667C11.0347 8.5 11.3333 8.20133 11.3333 7.83333C11.3333 7.46533 11.0347 7.16667 10.6667 7.16667H8ZM5 9.83333C4.816 9.83333 4.66667 9.98267 4.66667 10.1667V10.8333C4.66667 11.0173 4.816 11.1667 5 11.1667H5.66667C5.85067 11.1667 6 11.0173 6 10.8333V10.1667C6 9.98267 5.85067 9.83333 5.66667 9.83333H5ZM8 9.83333C7.632 9.83333 7.33333 10.132 7.33333 10.5C7.33333 10.868 7.632 11.1667 8 11.1667H8.66667V9.83333H8ZM10 10.5V11.8333L13.431 15.2643L14.7643 13.931L11.3333 10.5H10ZM15.2357 14.4023L13.9023 15.7357L14.569 16.4023C14.699 16.5323 14.9104 16.5323 15.0404 16.4023L15.9023 15.5404C16.0323 15.4097 16.0323 15.199 15.9023 15.069L15.2357 14.4023Z" fill="#242424"/>
</g>
<defs>
<clipPath id="clip0_2500_478">
<rect width="16" height="16" fill="white" transform="translate(0 0.5)"/>
</clipPath>
</defs>
</svg>
