<svg width="17" height="17" viewBox="0 0 17 17" fill="none" xmlns="http://www.w3.org/2000/svg">
<path d="M2.7973 3.16672C2.67135 3.16497 2.54631 3.18782 2.42943 3.23394C2.31256 3.28006 2.20618 3.34852 2.11649 3.43536C2.0268 3.5222 1.95557 3.62568 1.90696 3.73979C1.85835 3.85389 1.83331 3.97635 1.83331 4.10003C1.83331 4.22372 1.85835 4.34618 1.90696 4.46028C1.95557 4.57438 2.0268 4.67786 2.11649 4.7647C2.20618 4.85154 2.31256 4.92001 2.42943 4.96613C2.54631 5.01225 2.67135 5.0351 2.7973 5.03335H14.2027C14.3286 5.0351 14.4537 5.01225 14.5705 4.96613C14.6874 4.92001 14.7938 4.85154 14.8835 4.7647C14.9732 4.67786 15.0444 4.57438 15.093 4.46028C15.1416 4.34618 15.1666 4.22372 15.1666 4.10003C15.1666 3.97635 15.1416 3.85389 15.093 3.73979C15.0444 3.62568 14.9732 3.5222 14.8835 3.43536C14.7938 3.34852 14.6874 3.28006 14.5705 3.23394C14.4537 3.18782 14.3286 3.16497 14.2027 3.16672H2.7973ZM2.7973 7.56664C2.67135 7.5649 2.54631 7.58774 2.42943 7.63386C2.31256 7.67998 2.20618 7.74845 2.11649 7.83529C2.0268 7.92213 1.95557 8.02561 1.90696 8.13971C1.85835 8.25382 1.83331 8.37627 1.83331 8.49996C1.83331 8.62365 1.85835 8.7461 1.90696 8.86021C1.95557 8.97431 2.0268 9.07779 2.11649 9.16463C2.20618 9.25147 2.31256 9.31994 2.42943 9.36606C2.54631 9.41217 2.67135 9.43502 2.7973 9.43327H12.3018C12.4277 9.43502 12.5528 9.41217 12.6696 9.36606C12.7865 9.31994 12.8929 9.25147 12.9826 9.16463C13.0723 9.07779 13.1435 8.97431 13.1921 8.86021C13.2407 8.7461 13.2658 8.62365 13.2658 8.49996C13.2658 8.37627 13.2407 8.25382 13.1921 8.13971C13.1435 8.02561 13.0723 7.92213 12.9826 7.83529C12.8929 7.74845 12.7865 7.67998 12.6696 7.63386C12.5528 7.58774 12.4277 7.5649 12.3018 7.56664H2.7973ZM2.7973 11.9666C2.67135 11.9648 2.54631 11.9877 2.42943 12.0338C2.31256 12.0799 2.20618 12.1484 2.11649 12.2352C2.0268 12.3221 1.95557 12.4255 1.90696 12.5396C1.85835 12.6537 1.83331 12.7762 1.83331 12.8999C1.83331 13.0236 1.85835 13.146 1.90696 13.2601C1.95557 13.3742 2.0268 13.4777 2.11649 13.5646C2.20618 13.6514 2.31256 13.7199 2.42943 13.766C2.54631 13.8121 2.67135 13.8349 2.7973 13.8332H10.4009C10.5268 13.8349 10.6519 13.8121 10.7687 13.766C10.8856 13.7199 10.992 13.6514 11.0817 13.5646C11.1714 13.4777 11.2426 13.3742 11.2912 13.2601C11.3398 13.146 11.3649 13.0236 11.3649 12.8999C11.3649 12.7762 11.3398 12.6537 11.2912 12.5396C11.2426 12.4255 11.1714 12.3221 11.0817 12.2352C10.992 12.1484 10.8856 12.0799 10.7687 12.0338C10.6519 11.9877 10.5268 11.9648 10.4009 11.9666H2.7973Z" fill="#242424"/>
</svg>
