<svg width="39" height="36" viewBox="0 0 39 36" fill="none" xmlns="http://www.w3.org/2000/svg">
<path d="M38.2559 19.6254L29.502 16.0033L25.8557 7.3075C25.6055 6.71312 24.6237 6.71312 24.3735 7.3075L20.7272 16.0033L11.9733 19.6254C11.6733 19.7497 11.4792 20.0397 11.4792 20.3616C11.4792 20.6835 11.6733 20.9735 11.9733 21.0978L20.7272 24.7199L24.3735 33.4157C24.4986 33.7137 24.7905 33.9065 25.1146 33.9065C25.4386 33.9065 25.7306 33.7137 25.8557 33.4157L29.502 24.7199L38.2559 21.0978C38.5559 20.9735 38.75 20.6835 38.75 20.3616C38.75 20.0397 38.5559 19.7497 38.2559 19.6254ZM17.3472 8.45006L11.7134 6.58405L9.8349 0.987616C9.61512 0.337461 8.53071 0.337461 8.31254 0.987616L6.43246 6.58405L0.798625 8.45006C0.471375 8.56001 0.25 8.86437 0.25 9.20697C0.25 9.54958 0.471375 9.85394 0.798625 9.9639L6.43406 11.8299L8.31254 17.4279C8.42163 17.7514 8.72802 17.9713 9.07292 17.9713C9.41781 17.9713 9.72421 17.7514 9.8349 17.4263L11.7134 11.8283L17.3488 9.9623C17.6745 9.85394 17.8958 9.54958 17.8958 9.20697C17.8958 8.86437 17.6745 8.56001 17.3472 8.45006ZM14.1389 29.1658L10.9097 28.0965L9.83329 24.8888C9.61352 24.2386 8.5291 24.2386 8.31094 24.8888L7.23454 28.0965L4.00535 29.1658C3.67971 29.2757 3.45833 29.5801 3.45833 29.9227C3.45833 30.2653 3.67971 30.5697 4.00696 30.6796L7.23615 31.7489L8.31254 34.9566C8.42163 35.2801 8.72802 35.5 9.07292 35.5C9.41781 35.5 9.72421 35.2801 9.8349 34.955L10.9113 31.7473L14.1405 30.678C14.4661 30.5697 14.6875 30.2653 14.6875 29.9227C14.6875 29.5801 14.4661 29.2757 14.1389 29.1658Z" fill="white"/>
</svg>
