<svg width="18" height="6" viewBox="0 0 18 6" fill="none" xmlns="http://www.w3.org/2000/svg">
<path d="M11.4286 3C11.4286 4.38071 10.3413 5.5 9 5.5C7.65874 5.5 6.57143 4.38071 6.57143 3C6.57143 1.61929 7.65874 0.5 9 0.5C10.3413 0.5 11.4286 1.61929 11.4286 3Z" fill="#9AA0AB"/>
<path d="M17.5 3C17.5 4.38071 16.4127 5.5 15.0714 5.5C13.7302 5.5 12.6429 4.38071 12.6429 3C12.6429 1.61929 13.7302 0.5 15.0714 0.5C16.4127 0.5 17.5 1.61929 17.5 3Z" fill="#9AA0AB"/>
<path d="M5.35714 3C5.35714 4.38071 4.26983 5.5 2.92857 5.5C1.58731 5.5 0.5 4.38071 0.5 3C0.5 1.61929 1.58731 0.5 2.92857 0.5C4.26983 0.5 5.35714 1.61929 5.35714 3Z" fill="#9AA0AB"/>
</svg>
