<svg width="27" height="22" viewBox="0 0 27 22" fill="none" preserveAspectRatio="xMinYMin slice" xmlns="http://www.w3.org/2000/svg">
<path d="M24.3 0.5H2.7C1.20825 0.5 0 1.67469 0 3.125V18.875C0 20.3253 1.20825 21.5 2.7 21.5H24.3C25.7917 21.5 27 20.3253 27 18.875V3.125C27 1.67469 25.7917 0.5 24.3 0.5ZM10.8 5.75C11.5452 5.75 12.15 6.338 12.15 7.0625C12.15 7.787 11.5452 8.375 10.8 8.375C10.0548 8.375 9.45 7.787 9.45 7.0625C9.45 6.338 10.0548 5.75 10.8 5.75ZM21.6 17.5625H5.4297C4.8681 17.5625 4.5522 16.9338 4.8978 16.5033L8.2593 12.3007C8.5239 11.9699 9.03555 11.9621 9.31095 12.2849L12.15 15.6069L16.3323 10.3674C16.605 10.0248 17.1383 10.0301 17.4056 10.3766L22.14 16.5125C22.4734 16.9456 22.1562 17.5625 21.6 17.5625Z" fill="#9AA0AB"/>
</svg>
